{"title":"Rise Of The Planet Of The Apes 2011 TS NTSC DVD-R DTRG","uid":6594145,"size":3609993353,"categoryP":"video","categoryS":"movies_dvdr","magnet":"?xt=urn:btih:acc6f08bf41594c62328561d6d0527d703bd1f3a&amp;dn=Rise+Of+The+Planet+Of+The+Apes+2011+TS+NTSC+DVD-R+DTRG&amp;tr=udp%3A%2F%2Ftracker.openbittorrent.com%3A80&amp;tr=udp%3A%2F%2Fopen.demonii.com%3A1337&amp;tr=udp%3A%2F%2Ftracker.coppersurfer.tk%3A6969&amp;tr=udp%3A%2F%2Fexodus.desync.com%3A6969","seeders":0,"leechers":1,"uploader":"SAFCukO09","files":3,"time":1312962195,"description":"Format : MPEG-PS\nFile size : 3.36 GiB\nDuration : 1h 37mn\nOverall bit rate : 4 913 Kbps\n\nVideo\nID : 224 (0xE0)\nFormat : MPEG Video\nFormat version : Version 2\nFormat profile : Main@Main\nFormat settings, BVOP : Yes\nFormat settings, Matrix : Default\nFormat settings, GOP : M=3, N=15\nDuration : 1h 37mn\nBit rate mode : Variable\nBit rate : 4 591 Kbps\nNominal bit rate : 2 519 Mbps\nWidth : 720 pixels\nHeight : 480 pixels\nDisplay aspect ratio : 16:9\nFrame rate : 29.970 fps\nStandard : NTSC\nColor space : YUV\nChroma subsampling : 4:2:0\nBit depth : 8 bits\nScan type : Progressive\nCompression mode : Lossy\nBits/(Pixel*Frame) : 0.443\nStream size : 3.14 GiB (93%)\n\nAudio\nID : 189 (0xBD)-128 (0x80)\nFormat : AC-3\nFormat/Info : Audio Coding 3\nMode extension : CM (complete main)\nMuxing mode : DVD-Video\nDuration : 1h 37mn\nBit rate mode : Constant\nBit rate : 224 Kbps\nChannel(s) : 2 channels\nChannel positions : Front: L R\nSampling rate : 48.0 KHz\nBit depth : 16 bits\nCompression mode : Lossy\nDelay relative to video : 509ms\nStream size : 157 MiB (5%)\n\nMenu\n\n\n\n\n\n &lt;a href=&quot;\nhttp://www.imdb.com/title/tt1318514/&quot; rel=&quot;nofollow&quot; target=&quot;_NEW&quot;&gt;\nhttp://www.imdb.com/title/tt1318514/&lt;/a&gt;\n\n\n\n\n\n89524873606771859129.png\n\n\n\nUsers: (1,143 votes) 55 reviews | Critics: 31 reviews Metascore: 69/100 (based on 35 reviews from Metacritic.com)\n\n\nAn origin story set in present day San Francisco, where man's own experiments with genetic engineering lead to the development of intelligence in apes and the onset of a war for supremacy.\n\nDirector: Rupert Wyatt\nWriters: Pierre Boulle (suggested by novel &quot;La planete des singes&quot;, Rick Jaffa, and 1 more credit Ã‚Â»\nStars: James Franco, Andy Serkis and Freida Pinto\n\n\n &lt;a href=&quot;\nhttp://www.leetleech.org/images/86791180244343892300.png&quot; rel=&quot;nofollow&quot; target=&quot;_NEW&quot;&gt;\nhttp://www.leetleech.org/images/86791180244343892300.png&lt;/a&gt;\n &lt;a href=&quot;\nhttp://www.leetleech.org/images/03366761906231405841.png&quot; rel=&quot;nofollow&quot; target=&quot;_NEW&quot;&gt;\nhttp://www.leetleech.org/images/03366761906231405841.png&lt;/a&gt;","torrent":{"xt":"urn:btih:acc6f08bf41594c62328561d6d0527d703bd1f3a","amp;dn":"Rise+Of+The+Planet+Of+The+Apes+2011+TS+NTSC+DVD-R+DTRG","amp;tr":["udp%3A%2F%2Ftracker.openbittorrent.com%3A80","udp%3A%2F%2Fopen.demonii.com%3A1337","udp%3A%2F%2Ftracker.coppersurfer.tk%3A6969","udp%3A%2F%2Fexodus.desync.com%3A6969"],"infoHash":"acc6f08bf41594c62328561d6d0527d703bd1f3a","infoHashBuffer":{"type":"Buffer","data":[172,198,240,139,244,21,148,198,35,40,86,29,109,5,39,215,3,189,31,58]},"announce":[],"urlList":[]}}